<?xml version="1.0" encoding="iso-8859-1"?>
<!-- Generator: Adobe Illustrator 19.0.0, SVG Export Plug-In . SVG Version: 6.00 Build 0)  -->
<svg xmlns="http://www.w3.org/2000/svg" xmlns:xlink="http://www.w3.org/1999/xlink" version="1.1" id="Layer_1" x="0px" y="0px" viewBox="0 0 511.999 511.999" style="enable-background:new 0 0 511.999 511.999;" xml:space="preserve" width="512" height="512">
<g id="XMLID_1693_">
	<g id="XMLID_818_">
		<polygon id="XMLID_857_" style="fill:#7EAEF2;" points="504.499,27.985 504.499,54.74 329.277,188.676 7.499,188.676     7.499,162.618 183.117,27.985   "/>
		<rect id="XMLID_397_" x="7.5" y="162.623" style="fill:#5089DD;" width="321.391" height="321.391"/>
		<rect id="XMLID_386_" x="7.5" y="162.623" style="fill:#E2FFFE;" width="321.391" height="64.227"/>
		<polygon id="XMLID_862_" style="fill:#00349B;" points="504.499,27.985 504.499,349.367 328.881,484.014 328.881,162.618   "/>
		<g id="XMLID_866_">
			<g id="XMLID_867_">
				<path id="XMLID_384_" style="fill:#E2FFFE;" d="M253.848,410.614H85.274c-14.019,0-25.383-11.365-25.383-25.383v0      c0-14.019,11.365-25.383,25.383-25.383h168.574c14.019,0,25.383,11.365,25.383,25.383v0      C279.232,399.25,267.867,410.614,253.848,410.614z"/>
			</g>
		</g>
	</g>
	<g id="XMLID_54_">
		<path id="XMLID_72_" d="M511.999,27.985c0-4.078-3.43-7.5-7.5-7.5H183.117c-1.65,0-3.254,0.544-4.563,1.548L2.936,156.666    C1.107,158.068,0,160.319,0,162.623v321.391c0,4.142,3.358,7.5,7.5,7.5h24.857c4.142,0,7.5-3.358,7.5-7.5s-3.358-7.5-7.5-7.5H15    V234.35h306.384v56.006c0,4.142,3.358,7.5,7.5,7.5c0.001,0,0.002,0,0.003,0s0.002,0,0.003,0c4.142,0,7.5-3.358,7.5-7.5V166.318    L496.996,43.183v191.84c0,4.142,3.358,7.5,7.5,7.5s7.5-3.358,7.5-7.5V28.043C511.996,28.024,511.999,28.005,511.999,27.985z     M185.661,35.485h296.721L326.34,155.123H29.604L185.661,35.485z M15,219.35v-49.227h306.384v49.227H15z"/>
		<path id="XMLID_70_" d="M504.496,258.14c-4.142,0-7.5,3.358-7.5,7.5v80.033L336.391,468.808V320.974c0-4.142-3.358-7.5-7.5-7.5    c-0.001,0-0.002,0-0.003,0s-0.002,0-0.003,0c-4.142,0-7.5,3.358-7.5,7.5v155.54H62.975c-4.142,0-7.5,3.358-7.5,7.5    s3.358,7.5,7.5,7.5h265.917c0.376,0,0.742-0.037,1.103-0.09c0.058-0.009,0.115-0.016,0.173-0.026    c0.372-0.064,0.735-0.152,1.086-0.269c0.019-0.006,0.038-0.015,0.058-0.021c0.761-0.259,1.464-0.638,2.093-1.113    c0.014-0.011,0.031-0.018,0.045-0.029l175.612-134.64c1.851-1.419,2.937-3.62,2.937-5.952V265.64    C511.996,261.498,508.638,258.14,504.496,258.14z"/>
		<path id="XMLID_1898_" d="M214.554,186.449c-4.142,0-7.5,3.358-7.5,7.5v1.569c0,4.142,3.358,7.5,7.5,7.5s7.5-3.358,7.5-7.5v-1.569    C222.054,189.807,218.696,186.449,214.554,186.449z"/>
		<path id="XMLID_69_" d="M250.626,186.449c-4.142,0-7.5,3.358-7.5,7.5v1.569c0,4.142,3.358,7.5,7.5,7.5s7.5-3.358,7.5-7.5v-1.569    C258.126,189.807,254.768,186.449,250.626,186.449z"/>
		<path id="XMLID_68_" d="M286.698,186.449c-4.142,0-7.5,3.358-7.5,7.5v1.569c0,4.142,3.358,7.5,7.5,7.5s7.5-3.358,7.5-7.5v-1.569    C294.198,189.807,290.84,186.449,286.698,186.449z"/>
		<path id="XMLID_1903_" d="M52.391,385.231c0,18.132,14.751,32.883,32.883,32.883h168.574c18.132,0,32.883-14.751,32.883-32.883    s-14.751-32.883-32.883-32.883H85.274C67.142,352.348,52.391,367.099,52.391,385.231z M271.731,385.231    c0,9.861-8.022,17.883-17.883,17.883H85.274c-9.861,0-17.883-8.022-17.883-17.883s8.022-17.883,17.883-17.883h168.574    C263.709,367.348,271.731,375.37,271.731,385.231z"/>
		<path id="XMLID_1904_" d="M133.017,325.076c0,4.142,3.358,7.5,7.5,7.5h54.678c4.142,0,7.5-3.358,7.5-7.5s-3.358-7.5-7.5-7.5    h-54.678C136.375,317.576,133.017,320.934,133.017,325.076z"/>
		<path id="XMLID_55_" d="M176.985,307.321c4.142,0,7.5-3.358,7.5-7.5s-3.358-7.5-7.5-7.5h-18.259c-4.142,0-7.5,3.358-7.5,7.5    s3.358,7.5,7.5,7.5H176.985z"/>
	</g>
</g>















</svg>
