<?xml version="1.0" encoding="iso-8859-1"?>
<!-- Generator: Adobe Illustrator 21.0.0, SVG Export Plug-In . SVG Version: 6.00 Build 0)  -->
<svg version="1.1" id="Capa_1" xmlns="http://www.w3.org/2000/svg" xmlns:xlink="http://www.w3.org/1999/xlink" x="0px" y="0px"
	 viewBox="0 0 512 512" style="enable-background:new 0 0 512 512;" xml:space="preserve">
<path style="fill:#EDE6F5;" d="M297.818,422.439c-5.76-20.84-8.77-42.49-8.81-64.409l-0.28-173.519l-31.24,0.05l-31.24,0.06
	l0.28,173.509c0.05,26.167-4.13,51.954-12.19,76.445l-0.155,0.094v22.293h83.509v-34.474L297.818,422.439z"/>
<polygon style="fill:#AB9DD6;" points="279.563,126.021 279.413,27.252 237.013,27.252 237.173,126.091 214.913,160.161 
	214.913,169.13 301.943,169.13 301.943,160.011 "/>
<polygon style="fill:#A095CE;" points="260.388,126.091 260.228,27.252 237.013,27.252 237.173,126.091 214.913,160.161 
	214.913,169.13 238.128,169.13 238.128,160.161 "/>
<rect x="237.128" y="89.801" transform="matrix(1 -0.0015 0.0015 1 -0.1543 0.3876)" style="fill:#4F4F74;" width="42.39" height="26.56"/>
<rect x="237.143" y="89.8" transform="matrix(1 -0.0017 0.0017 1 -0.1749 0.423)" style="fill:#27273D;" width="23.21" height="26.56"/>
<polygon style="fill:#4F4F74;" points="279.413,35.252 279.463,63.202 237.063,63.272 237.013,35.252 "/>
<polygon style="fill:#27273D;" points="260.241,35.252 237.026,35.252 237.071,63.272 260.286,63.234 "/>
<path style="fill:#F8D46E;" d="M282.563,11.252c6.63,0,12,5.37,12,12c0,3.32-1.34,6.32-3.51,8.49c-2.17,2.17-5.17,3.51-8.49,3.51
	h-3.15v-0.16l-42.4,0.07v0.09h-6.45c-6.63,0-12-5.37-12-12c0-3.32,1.34-6.32,3.51-8.49s5.17-3.51,8.49-3.51
	C230.563,11.252,282.563,11.252,282.563,11.252z"/>
<path style="fill:#F7C852;" d="M254.532,24.522v0.09h-6.45c-6.63,0-12-5.37-12-12c0-0.46,0.031-0.913,0.082-1.36h-5.601
	c-3.32,0-6.32,1.34-8.49,3.51s-3.51,5.17-3.51,8.49c0,6.63,5.37,12,12,12h6.45v-0.09l42.4-0.07v0.16h3.15
	c3.32,0,6.32-1.34,8.49-3.51c1.904-1.904,3.168-4.448,3.449-7.286L254.532,24.522z"/>
<path style="fill:#F8D46E;" d="M342.182,204.491c0.01,3.82-4.57,5.79-7.34,3.16l-14.99-14.19l-31.25,0.05l-62.479,0.1v0.01
	l-30.52,0.05l-15.71,14.51c-2.79,2.57-7.3,0.6-7.3-3.19l-0.05-28.2c-0.02-9.15,7.38-16.57,16.52-16.58l25.85-0.05l87.029-0.15
	l23.61-0.04c9.14-0.01,16.57,7.39,16.58,16.53L342.182,204.491z"/>
<path style="fill:#F7C852;" d="M184.564,189.071c-0.02-9.15,7.38-16.57,16.52-16.58l25.85-0.05l87.029-0.15l23.61-0.04
	c1.425-0.001,2.801,0.196,4.121,0.533c-1.7-7.345-8.281-12.822-16.141-12.813l-23.61,0.04l-87.029,0.15l-25.85,0.05
	c-9.14,0.01-16.54,7.43-16.52,16.58l0.05,28.2c0,3.79,4.51,5.76,7.3,3.19l4.696-4.337L184.564,189.071z"/>
<path style="fill:#17C178;" d="M504.561,472.431v26.078c0,5.379-4.361,9.74-9.74,9.74H388.052l-108.489-47l-39.61-16.1l57.74-22.71
	l44.19-17.38c6.2-2.44,13.11-2.33,19.24,0.31l138.681,59.828C502.69,466.442,504.561,469.286,504.561,472.431z"/>
<polygon style="fill:#17AD68;" points="279.795,445.149 260.207,437.183 239.953,445.149 279.563,461.249 388.052,508.248 
	427.894,508.248 319.405,461.249 "/>
<path style="fill:#4ACE99;" d="M279.563,461.249l-39.61-16.1l-25.77-10.48l-48.53-19.73c-5.85-2.37-12.37-2.47-18.29-0.28
	L12.67,465.329c-3.071,1.155-5.105,4.093-5.105,7.374v25.806c0,5.379,4.361,9.74,9.74,9.74h136.149h234.598L279.563,461.249z"/>
<path style="fill:#BDACE5;" d="M297.693,422.439l-39.85,15.67l-0.12-32.91l-0.05-29.01l-0.31-182.629l31.24-0.05l0.28,164.519
	C288.923,379.949,291.933,401.599,297.693,422.439z"/>
<g>
	<path style="fill:#29D7FF;" d="M163.754,316.06c2.35,2.35,3.81,5.6,3.81,9.19c0,7.18-5.82,13-13,13H56.565
		c-27.71,0-50.04-22.99-48.96-50.94c0.96-24.92,20.93-45.41,45.82-46.96c24.26-1.51,45.01,14.64,50.64,36.82
		c2.4-0.6,4.91-0.92,7.5-0.92c17.12,0,31,13.88,31,31c0,1.7-0.14,3.37-0.41,5h12.41C158.154,312.25,161.404,313.71,163.754,316.06z"
		/>
	<path style="fill:#29D7FF;" d="M492.671,99.362c6.29,0,11.39,5.1,11.39,11.39c0,6.28-5.1,11.38-11.39,11.38l-139.939,0.57
		c-6.32,0-11.45-5.12-11.45-11.44c0-6.32,5.13-11.45,11.45-11.45h16.46c-3.61-6.57-5.55-14.19-5.24-22.29
		c0.84-21.84,18.33-39.78,40.14-41.14c21.25-1.32,39.42,12.82,44.35,32.25c2.1-0.52,4.3-0.8,6.57-0.8c15,0,27.15,12.15,27.15,27.15
		c0,1.49-0.12,2.95-0.35,4.38C481.811,99.362,492.671,99.362,492.671,99.362z"/>
</g>
<g>
	<path style="fill:#18CBE8;" d="M36.523,304.288c0.96-24.92,20.93-45.41,45.82-46.96c4.115-0.256,8.124,0.007,11.98,0.71
		c-9.602-11.602-24.439-18.712-40.899-17.688c-24.89,1.55-44.86,22.04-45.82,46.96c-0.962,24.904,16.666,45.854,40.12,50.129
		C40.33,328.502,36.036,316.905,36.523,304.288z"/>
	<path style="fill:#18CBE8;" d="M381.65,116.789h0.158c7.318,0,12.715-6.594,11.565-13.821c-0.437-2.744-0.613-5.576-0.502-8.469
		c0.84-21.84,18.33-39.78,40.14-41.14c2.828-0.176,5.598-0.07,8.293,0.278c-8.325-11.2-21.975-18.202-37.211-17.256
		c-21.81,1.36-39.3,19.3-40.14,41.14c-0.31,8.1,1.63,15.72,5.24,22.29h-16.078c-6.305,0-11.715,4.932-11.83,11.236
		c-0.117,6.418,5.057,11.654,11.448,11.654l18.948-0.077C373.645,119.144,377.372,116.789,381.65,116.789z"/>
</g>
<path d="M507.469,460.362l-78.739-33.966l0,0l-64.703-27.912c-7.992-3.446-16.854-3.592-24.956-0.406l-36.292,14.272
	c-4.254-17.815-6.426-36.053-6.457-54.335l-0.159-93.777c-0.007-4.138-3.364-7.487-7.5-7.487c-0.004,0-0.009,0-0.013,0
	c-4.142,0.007-7.494,3.371-7.487,7.513l0.159,93.777c0.034,20.152,2.518,40.25,7.372,59.849l-23.457,9.225l-0.075-21.945
	c-0.014-4.133-3.369-7.474-7.5-7.474c-0.009,0-0.018,0-0.026,0c-4.142,0.014-7.488,3.384-7.474,7.526l0.095,27.784l-10.329,4.062
	l-16.592-6.745c7.007-23.446,10.547-47.698,10.506-72.201l-0.266-157.018l16.241-0.028l0.296,175.124
	c0.007,4.138,3.363,7.487,7.5,7.487c0.004,0,0.009,0,0.013,0c4.142-0.007,7.494-3.371,7.487-7.513l-0.296-175.124l16.241-0.028
	l0.056,33.241c0.007,4.138,3.363,7.487,7.5,7.487c0.004,0,0.009,0,0.013,0c4.142-0.007,7.494-3.371,7.487-7.513l-0.056-33.241
	l20.746-0.035l12.82,12.138c3.444,3.261,8.483,4.154,12.839,2.276c4.355-1.878,7.164-6.157,7.156-10.9l-0.047-27.99
	c-0.022-13.249-10.808-24.011-24.05-24.011c-0.014,0-0.028,0-0.042,0l-19.565,0.033l-18.914-28.738l-0.138-81.528
	C295.519,40.252,302,32.502,302,23.251c0-10.752-8.748-19.5-19.5-19.5h-52c-10.752,0-19.5,8.748-19.5,19.5
	c0,10.403,8.195,18.904,18.465,19.448l0.125,73.707v0.001c0,0,0,0,0,0.001l0.013,7.459l-18.817,28.802l-21.795,0.037
	c-6.425,0.011-12.46,2.522-16.996,7.073c-4.535,4.55-7.026,10.595-7.016,17.019l0.048,28.207c0.008,4.702,2.797,8.956,7.106,10.838
	c1.525,0.666,3.138,0.99,4.739,0.99c2.925,0,5.81-1.083,8.042-3.144l13.564-12.527l20.097-0.034l0.266,157.018
	c0.038,22.556-3.151,44.886-9.468,66.5l-40.961-16.651c-7.603-3.09-16.025-3.221-23.751-0.355L4.861,460.23
	c-3.877,1.458-5.837,5.783-4.379,9.66c1.131,3.007,3.987,4.861,7.021,4.861c0.877,0,1.77-0.155,2.64-0.482l53.266-20.037
	l45.761,24.156l5.121,17.922c0.941,3.294,3.944,5.441,7.208,5.441c0.682,0,1.376-0.094,2.064-0.291
	c3.982-1.138,6.289-5.289,5.151-9.272l-1.554-5.438l16.343-0.002c4.142,0,7.5-3.359,7.499-7.501c-0.001-4.142-3.359-7.5-7.501-7.499
	l-20.627,0.002l-0.161-0.563c-0.562-1.966-1.902-3.618-3.71-4.572L82.17,447.173l67.74-25.482c4.17-1.547,8.734-1.475,12.854,0.199
	l113.911,46.307c3.834,1.558,8.212-0.286,9.772-4.124c1.56-3.837-0.286-8.212-4.124-9.772l-22.081-8.976
	c0.529-0.184,1.029-0.426,1.495-0.718l82.82-32.57c0.013-0.005,0,0,0.013-0.005l-0.013,0.005c4.39-1.726,9.192-1.648,13.525,0.221
	l50.011,21.573l-26.997,13.733c-0.893,0.454-1.686,1.083-2.332,1.848l-8.572,10.159l-26.179-1.805
	c-4.13-0.274-7.714,2.833-7.999,6.966c-0.285,4.132,2.834,7.713,6.966,7.999l15.223,1.05l-6.439,7.631
	c-2.671,3.166-2.27,7.897,0.896,10.569c1.408,1.188,3.125,1.768,4.833,1.768c2.133,0,4.252-0.905,5.736-2.664l26.021-30.84
	l36.746-18.692l75.53,32.582c0.968,0.417,1.976,0.615,2.967,0.615c2.903,0,5.667-1.696,6.89-4.531
	C513.025,466.417,511.272,462.003,507.469,460.362z M271.864,42.752l0.022,12.962l-27.398,0.046l-0.022-13.008H271.864z
	 M244.513,70.76l27.398-0.046l0.02,11.562l-27.398,0.046L244.513,70.76z M244.558,97.322l27.398-0.046l0.02,11.561l-27.398,0.046
	L244.558,97.322z M226,23.252c0-2.481,2.019-4.5,4.5-4.5h52c2.481,0,4.5,2.019,4.5,4.5s-2.019,4.5-4.5,4.5h-52
	C228.019,27.752,226,25.733,226,23.252z M195.528,186.168c-1.882,0.003-3.693,0.713-5.076,1.99l-10.437,9.638l-0.036-21.023
	c-0.004-2.418,0.934-4.693,2.64-6.405s3.978-2.658,6.396-2.662l45.248-0.077c0.004,0-0.008,0-0.004,0s0,0,0.004,0l0,0
	c4.142-0.007,7.494-3.371,7.487-7.513c-0.007-4.138-3.363-7.487-7.5-7.487c-0.004,0-0.009,0-0.013,0l-5.514,0.009l14.662-22.442
	c0.799-1.223,1.224-2.653,1.221-4.115l-0.004-2.2l27.398-0.046l0.004,2.2c0.002,1.461,0.432,2.89,1.235,4.11l14.738,22.393
	l-23.741,0.04c-4.142,0.007-7.494,3.371-7.487,7.513c0.007,4.138,3.363,7.487,7.5,7.487c0.004,0,0.009,0,0.013,0l61.242-0.104
	c0.018,0-0.018,0,0,0l0,0c0.006,0,0.01,0,0.016,0c4.983,0,9.043,4.051,9.051,9.036l0.035,20.65l-9.665-9.15
	c-1.393-1.319-3.238-2.054-5.156-2.054c-0.004,0-0.008,0-0.013,0l0,0c-0.001,0,0,0-0.001,0c-0.004,0,0.005,0,0.001,0
	c-0.001,0,0.001,0,0,0L195.528,186.168c-0.002,0,61.78-0.105,61.776-0.105C257.3,186.063,195.532,186.168,195.528,186.168
	C195.525,186.168,195.53,186.168,195.528,186.168L195.528,186.168L195.528,186.168C195.524,186.168,195.532,186.168,195.528,186.168
	L195.528,186.168L195.528,186.168z"/>
<path d="M56.565,345.75h97.999c11.304,0,20.5-9.196,20.5-20.5s-9.196-20.5-20.5-20.5h-4.58c-1.292-20.069-18.031-36-38.42-36
	c-0.771,0-1.541,0.023-2.31,0.069c-8.779-22.679-31.442-37.509-56.292-35.957c-28.537,1.776-51.753,25.566-52.856,54.16
	c-0.599,15.525,4.991,30.227,15.739,41.397C26.599,339.595,41.06,345.75,56.565,345.75z M15.097,287.601
	c0.809-20.996,17.852-38.463,38.798-39.768c0.875-0.054,1.745-0.081,2.611-0.081c18.903,0,35.602,12.798,40.284,31.261
	c1.015,4.002,5.072,6.434,9.08,5.435c1.863-0.463,3.779-0.698,5.694-0.698c12.958,0,23.5,10.542,23.5,23.5
	c0,1.251-0.104,2.529-0.311,3.799c-0.352,2.17,0.266,4.386,1.691,6.061c1.425,1.675,3.513,2.64,5.712,2.64h12.407
	c3.033,0,5.5,2.467,5.5,5.5s-2.467,5.5-5.5,5.5H56.563c-11.388,0-22.01-4.521-29.909-12.73
	C18.761,309.815,14.656,299.013,15.097,287.601z"/>
<path d="M352.731,130.206l139.943-0.572c10.414,0,18.887-8.472,18.887-18.886s-8.473-18.887-18.887-18.887h-3.15
	c-1.583-17.651-16.458-31.532-34.513-31.532c-0.468,0-0.936,0.009-1.402,0.028c-8.005-19.885-28.04-32.828-49.984-31.46
	c-25.466,1.585-46.185,22.815-47.168,48.332c-0.197,5.114,0.382,10.2,1.697,15.087h-5.423c-10.446,0-18.945,8.499-18.945,18.945
	S342.285,130.206,352.731,130.206z M352.731,107.316h16.461c2.65,0,5.104-1.398,6.454-3.679c1.35-2.281,1.396-5.104,0.123-7.428
	c-3.075-5.607-4.57-11.971-4.322-18.403c0.691-17.918,15.235-32.826,33.111-33.939c17.029-1.06,32.432,10.13,36.611,26.61
	c1.015,4.002,5.071,6.432,9.08,5.435c1.559-0.388,3.162-0.584,4.764-0.584c10.836,0,19.652,8.816,19.652,19.653
	c0,1.047-0.087,2.117-0.26,3.178c-0.352,2.17,0.266,4.386,1.691,6.061c1.425,1.675,3.513,2.64,5.712,2.64h10.867
	c2.143,0,3.887,1.744,3.887,3.887s-1.744,3.886-3.887,3.886l-139.943,0.572c-2.175,0-3.945-1.77-3.945-3.945
	C348.786,109.085,350.556,107.316,352.731,107.316z"/>
<g>
</g>
<g>
</g>
<g>
</g>
<g>
</g>
<g>
</g>
<g>
</g>
<g>
</g>
<g>
</g>
<g>
</g>
<g>
</g>
<g>
</g>
<g>
</g>
<g>
</g>
<g>
</g>
<g>
</g>
</svg>
