<?xml version="1.0" encoding="iso-8859-1"?>
<!-- Generator: Adobe Illustrator 19.0.0, SVG Export Plug-In . SVG Version: 6.00 Build 0)  -->
<svg xmlns="http://www.w3.org/2000/svg" xmlns:xlink="http://www.w3.org/1999/xlink" version="1.1" id="Layer_1" x="0px" y="0px" viewBox="0 0 512 512" style="enable-background:new 0 0 512 512;" xml:space="preserve" width="512" height="512">
<g id="XMLID_1799_">
	<g id="XMLID_411_">
		<path id="XMLID_412_" style="fill:#718987;" d="M402.036,34.786v442.428c0,15.073-12.223,27.286-27.286,27.286H137.25    c-15.073,0-27.286-12.213-27.286-27.286V34.786c0-15.073,12.213-27.286,27.286-27.286H374.75    C389.813,7.5,402.036,19.713,402.036,34.786z"/>
		<path id="XMLID_413_" style="fill:#5C6D6B;" d="M402.036,34.786v52.432H109.964V34.786c0-15.073,12.213-27.286,27.286-27.286    H374.75C389.813,7.5,402.036,19.713,402.036,34.786z"/>
		<path id="XMLID_416_" style="fill:#FF433E;" d="M402.036,34.786v38.231H109.964V34.786c0-15.073,12.213-27.286,27.286-27.286    H374.75C389.813,7.5,402.036,19.713,402.036,34.786z"/>
		<path id="XMLID_417_" style="fill:#5C6D6B;" d="M402.036,423.92v53.294c0,15.073-12.223,27.286-27.286,27.286H137.25    c-15.073,0-27.286-12.213-27.286-27.286V423.92H402.036z"/>
		<path id="XMLID_420_" style="fill:#FF433E;" d="M402.036,438.121v39.093c0,15.073-12.223,27.286-27.286,27.286H137.25    c-15.073,0-27.286-12.213-27.286-27.286v-39.093H402.036z"/>
		<path id="XMLID_430_" style="fill:#E2FFFE;" d="M280.47,258.933c1.332,1.832,0.386,4.416-1.81,4.971    c-4.887,1.235-11.658,4.879-11.949,15.573c-0.01,0.243-0.01,0.487-0.01,0.73l0.842,25.673h-24.365l0.335-25.673    c0-0.243,0-0.487-0.01-0.73c-0.29-10.695-7.062-14.338-11.949-15.573c-2.196-0.555-3.143-3.139-1.81-4.971l25.363-34.869    L280.47,258.933z"/>
		<path id="XMLID_431_" style="fill:#B0D1CF;" d="M243.179,305.881l0.335-25.673c0-0.243,0-0.487-0.01-0.73h23.208    c-0.01,0.243-0.01,0.487-0.01,0.73l0.842,25.673H243.179z"/>
		<path id="XMLID_435_" style="fill:#5089DD;" d="M277.484,299.135v138.986h-42.968V299.135c0-3.013,2.445-5.457,5.457-5.457h32.053    C275.039,293.678,277.484,296.123,277.484,299.135z"/>
		<rect id="XMLID_438_" x="234.516" y="423.92" style="fill:#2358C1;" width="42.968" height="14.201"/>
	</g>
	<g id="XMLID_297_">
		<path id="XMLID_451_" d="M374.75,0H137.25c-19.181,0-34.786,15.605-34.786,34.786v314.238c0,4.142,3.358,7.5,7.5,7.5    s7.5-3.358,7.5-7.5V80.517h277.071v20.508c0,4.142,3.358,7.5,7.5,7.5s7.5-3.358,7.5-7.5V34.786C409.536,15.605,393.931,0,374.75,0    z M117.464,65.517v-30.73c0-10.91,8.876-19.786,19.786-19.786H374.75c10.91,0,19.786,8.876,19.786,19.786v30.73H117.464z"/>
		<path id="XMLID_452_" d="M402.036,124.142c-4.142,0-7.5,3.358-7.5,7.5v211.382c0,4.142,3.358,7.5,7.5,7.5s7.5-3.358,7.5-7.5    V131.642C409.536,127.5,406.178,124.142,402.036,124.142z"/>
		<path id="XMLID_456_" d="M402.036,366.142c-4.142,0-7.5,3.358-7.5,7.5v56.979H284.981V299.136c0-6.329-4.564-11.604-10.572-12.729    l-0.208-6.313c0.027-5.145,1.917-7.816,6.303-8.919c3.444-0.867,6.224-3.378,7.434-6.717c1.212-3.343,0.686-7.057-1.406-9.934    l-22.803-31.357c26.566,3.632,47.338,25.685,48.973,52.828c-6.841,2.958-11.644,9.767-11.644,17.681    c0,10.619,8.639,19.258,19.258,19.258c10.619,0,19.258-8.639,19.258-19.258c0-7.993-4.897-14.862-11.848-17.771    c-1.056-21.655-11.757-40.808-27.878-53.279h38.224c2.93,6.904,9.777,11.758,17.737,11.758c10.619,0,19.258-8.639,19.258-19.258    c0-10.619-8.639-19.258-19.258-19.258c-7.96,0-14.807,4.854-17.737,11.758H173.926c-2.93-6.903-9.777-11.758-17.737-11.758    c-10.619,0-19.258,8.639-19.258,19.258c0,10.619,8.639,19.258,19.258,19.258c7.96,0,14.807-4.855,17.737-11.758h38.224    c-16.121,12.471-26.822,31.624-27.878,53.279c-6.95,2.909-11.848,9.777-11.848,17.771c0,10.619,8.639,19.258,19.258,19.258    c10.619,0,19.258-8.639,19.258-19.258c0-7.914-4.802-14.724-11.644-17.681c1.594-26.452,21.363-48.068,46.957-52.514    l-22.574,31.043c-2.092,2.877-2.618,6.59-1.406,9.934c1.21,3.339,3.99,5.85,7.434,6.716c4.418,1.112,6.304,3.814,6.304,8.938    l-0.086,6.723c-5.165,1.707-8.906,6.571-8.906,12.301v131.485H117.464v-50.979c0-4.142-3.358-7.5-7.5-7.5s-7.5,3.358-7.5,7.5    v97.572c0,19.181,15.605,34.786,34.786,34.786H374.75c19.181,0,34.786-15.605,34.786-34.786V373.642    C409.536,369.5,406.178,366.142,402.036,366.142z M320.318,297.935c-2.348,0-4.258-1.91-4.258-4.258    c0-2.348,1.91-4.258,4.258-4.258c2.348,0,4.258,1.91,4.258,4.258C324.576,296.025,322.666,297.935,320.318,297.935z     M355.811,210.87c2.348,0,4.258,1.91,4.258,4.258c0,2.348-1.91,4.258-4.258,4.258c-2.348,0-4.258-1.91-4.258-4.258    C351.553,212.78,353.463,210.87,355.811,210.87z M156.189,219.386c-2.348,0-4.258-1.91-4.258-4.258    c0-2.348,1.91-4.258,4.258-4.258c2.348,0,4.258,1.91,4.258,4.258C160.447,217.476,158.537,219.386,156.189,219.386z     M191.682,297.935c-2.348,0-4.258-1.91-4.258-4.258c0-2.348,1.91-4.258,4.258-4.258c2.348,0,4.258,1.91,4.258,4.258    C195.94,296.025,194.03,297.935,191.682,297.935z M255.106,236.812l16,22.001c-7.553,4.018-11.904,11.661-11.904,21.395    c0,0.082,0.001,0.165,0.004,0.247l0.188,5.722h-8.459l0.076-5.969c0-9.734-4.351-17.377-11.904-21.394L255.106,236.812z     M242.019,301.177h27.963v129.444h-27.963V301.177z M374.75,497H137.25c-10.91,0-19.786-8.876-19.786-19.786v-31.593h277.071    v31.593C394.536,488.124,385.66,497,374.75,497z"/>
		<path id="XMLID_303_" d="M228.617,145.514v-1.518c0-4.142-3.358-7.5-7.5-7.5s-7.5,3.358-7.5,7.5v1.518c0,4.142,3.358,7.5,7.5,7.5    S228.617,149.656,228.617,145.514z"/>
		<path id="XMLID_302_" d="M263.5,145.514v-1.518c0-4.142-3.358-7.5-7.5-7.5s-7.5,3.358-7.5,7.5v1.518c0,4.142,3.358,7.5,7.5,7.5    S263.5,149.656,263.5,145.514z"/>
		<path id="XMLID_299_" d="M298.383,145.514v-1.518c0-4.142-3.358-7.5-7.5-7.5s-7.5,3.358-7.5,7.5v1.518c0,4.142,3.358,7.5,7.5,7.5    S298.383,149.656,298.383,145.514z"/>
		<path id="XMLID_763_" d="M266.793,32.758H190.86c-4.142,0-7.5,3.358-7.5,7.5s3.358,7.5,7.5,7.5h75.933c4.142,0,7.5-3.358,7.5-7.5    S270.936,32.758,266.793,32.758z"/>
		<path id="XMLID_801_" d="M321.14,32c-4.142,0-7.5,3.358-7.5,7.5v1.518c0,4.142,3.358,7.5,7.5,7.5s7.5-3.358,7.5-7.5V39.5    C328.64,35.357,325.282,32,321.14,32z"/>
		<path id="XMLID_802_" d="M300.278,32c-4.142,0-7.5,3.358-7.5,7.5v1.518c0,4.142,3.358,7.5,7.5,7.5s7.5-3.358,7.5-7.5V39.5    C307.778,35.357,304.42,32,300.278,32z"/>
		<path id="XMLID_803_" d="M277.481,463.811h-42.963c-4.142,0-7.5,3.358-7.5,7.5s3.358,7.5,7.5,7.5h42.963    c4.142,0,7.5-3.358,7.5-7.5S281.624,463.811,277.481,463.811z"/>
	</g>
</g>















</svg>
