<?xml version="1.0" encoding="iso-8859-1"?>
<!-- Generator: Adobe Illustrator 19.0.0, SVG Export Plug-In . SVG Version: 6.00 Build 0)  -->
<svg xmlns="http://www.w3.org/2000/svg" xmlns:xlink="http://www.w3.org/1999/xlink" version="1.1" id="Layer_1" x="0px" y="0px" viewBox="0 0 512 512" style="enable-background:new 0 0 512 512;" xml:space="preserve" width="512" height="512">
<g id="XMLID_1781_">
	<g id="XMLID_442_">
		<g id="XMLID_443_">
			<g id="XMLID_444_">
				<path id="XMLID_445_" style="fill:#88A5A0;" d="M348.769,479.752H163.231c-7.488,0-10.714-9.521-4.751-14.057      c14.546-11.046,24.067-24.849,30.284-38.085c11.359-24.126,11.75-46.316,11.75-46.316h110.97c0,0,0.391,22.19,11.75,46.316      c6.217,13.236,15.738,27.039,30.284,38.085C359.482,470.231,356.257,479.752,348.769,479.752z"/>
				<path id="XMLID_446_" style="fill:#718987;" d="M319.303,418.241c-7.519-20.207-7.818-36.946-7.818-36.946h-110.97      c0,0-0.3,16.74-7.818,36.946H319.303z"/>
				<path id="XMLID_450_" style="fill:#14C4BB;" d="M504.494,69.085v269.019H7.5V69.085c0-20.352,16.481-36.833,36.814-36.833      h423.365C488.012,32.252,504.494,48.733,504.494,69.085z"/>
				<rect id="XMLID_453_" x="7.5" y="311.48" style="fill:#00A094;" width="496.994" height="26.625"/>
				<path id="XMLID_1977_" style="fill:#B0D1CF;" d="M488.208,400.239H23.792c-8.998,0-16.292-7.294-16.292-16.292v-52.564h497      v52.564C504.5,392.945,497.206,400.239,488.208,400.239z"/>
			</g>
		</g>
		<g id="XMLID_454_">
			<path id="XMLID_460_" style="fill:#E2FFFE;" d="M287.957,206.21c1.74,2.392,0.504,5.767-2.364,6.492     c-6.382,1.613-15.225,6.371-15.604,20.338c-0.013,0.318-0.013,0.636-0.013,0.954l1.1,33.528h-31.819l0.437-33.528     c0-0.318,0-0.636-0.013-0.954c-0.379-13.967-9.222-18.725-15.604-20.338c-2.868-0.725-4.104-4.099-2.364-6.492l33.123-45.538     L287.957,206.21z"/>
			<path id="XMLID_461_" style="fill:#B0D1CF;" d="M239.256,267.522l0.437-33.528c0-0.318,0-0.636-0.013-0.954h30.309     c-0.013,0.318-0.013,0.636-0.013,0.954l1.1,33.528H239.256z"/>
			<path id="XMLID_465_" style="fill:#EF9D45;" d="M284.06,258.716v72.671h-56.12v-72.671c0-3.939,3.194-7.132,7.132-7.132h41.856     C280.866,251.584,284.06,254.777,284.06,258.716z"/>
			<rect id="XMLID_466_" x="227.94" y="311.479" style="fill:#E58013;" width="56.12" height="19.907"/>
		</g>
		<g id="XMLID_468_">
			<circle id="XMLID_1970_" style="fill:#E58013;" cx="256" cy="365.811" r="11.173"/>
		</g>
	</g>
	<g id="XMLID_272_">
		<path id="XMLID_291_" d="M467.679,24.754h-52.037c-4.142,0-7.5,3.358-7.5,7.5s3.358,7.5,7.5,7.5h52.037    c16.168,0,29.321,13.153,29.321,29.321v200.618c0,4.142,3.358,7.5,7.5,7.5s7.5-3.358,7.5-7.5V69.076    C512,44.637,492.118,24.754,467.679,24.754z"/>
		<path id="XMLID_786_" d="M504.5,292.811c-4.142,0-7.5,3.358-7.5,7.5v23.572H291.554v-65.169c0-7.767-6.089-14.121-13.741-14.584    l-0.337-10.252c0.031-7.784,3.201-12.203,9.968-13.906c3.758-0.946,6.79-3.687,8.11-7.33c1.322-3.648,0.748-7.7-1.535-10.839    l-32.798-45.102c38.771,2.629,69.697,34.26,71.2,73.324c-8.89,3.133-15.28,11.612-15.28,21.56    c0,12.603,10.253,22.855,22.855,22.855c12.602,0,22.855-10.253,22.855-22.855c0-9.996-6.453-18.508-15.41-21.604    c-1.001-30.703-17.2-57.627-41.303-73.478h58.625c3.111,8.929,11.609,15.355,21.585,15.355c12.603,0,22.855-10.253,22.855-22.855    c0-12.602-10.253-22.855-22.855-22.855c-9.975,0-18.473,6.427-21.585,15.355H147.236c-3.112-8.928-11.609-15.355-21.585-15.355    c-12.603,0-22.855,10.253-22.855,22.855c0,12.603,10.253,22.855,22.855,22.855c9.975,0,18.473-6.427,21.585-15.355h58.625    c-24.103,15.852-40.303,42.775-41.303,73.478c-8.957,3.096-15.41,11.608-15.41,21.604c0,12.603,10.253,22.855,22.855,22.855    c12.603,0,22.855-10.253,22.855-22.855c0-9.948-6.391-18.427-15.28-21.56c1.471-38.233,31.119-69.362,68.728-73.136    l-32.661,44.914c-2.283,3.139-2.856,7.191-1.534,10.839c1.32,3.643,4.353,6.383,8.111,7.33c6.799,1.711,9.966,6.167,9.967,13.926    l-0.135,10.504c-6.621,1.396-11.608,7.281-11.608,14.312v65.169H15V69.076c0-16.168,13.153-29.321,29.321-29.321h340.703    c4.142,0,7.5-3.358,7.5-7.5s-3.358-7.5-7.5-7.5H44.321C19.882,24.754,0,44.637,0,69.076v314.871    c0,13.119,10.673,23.792,23.792,23.792h54.565c4.142,0,7.5-3.358,7.5-7.5s-3.358-7.5-7.5-7.5H23.792    c-4.848,0-8.792-3.944-8.792-8.792v-45.064h482v45.064c0,4.848-3.944,8.792-8.792,8.792H108.976c-4.142,0-7.5,3.358-7.5,7.5    s3.358,7.5,7.5,7.5h79.329c-4.864,16.48-14.653,37.038-34.352,51.988c-5.323,4.04-7.384,10.743-5.252,17.078    c2.134,6.342,7.836,10.44,14.527,10.44h185.547c6.69,0,12.393-4.098,14.527-10.44c2.132-6.335,0.07-13.039-5.253-17.079    c-19.657-14.918-29.464-35.407-34.354-51.987h164.514c13.119,0,23.792-10.673,23.792-23.792v-83.636    C512,296.168,508.642,292.811,504.5,292.811z M339.997,259.44c-4.332,0-7.855-3.524-7.855-7.855s3.524-7.855,7.855-7.855    c4.331,0,7.855,3.524,7.855,7.855S344.328,259.44,339.997,259.44z M386.348,141.147c4.332,0,7.855,3.524,7.855,7.855    c0,4.332-3.524,7.855-7.855,7.855c-4.331,0-7.855-3.524-7.855-7.855C378.493,144.671,382.017,141.147,386.348,141.147z     M125.652,156.858c-4.332,0-7.855-3.524-7.855-7.855c0-4.331,3.524-7.855,7.855-7.855c4.331,0,7.855,3.524,7.855,7.855    C133.507,153.334,129.983,156.858,125.652,156.858z M172.003,259.44c-4.331,0-7.855-3.524-7.855-7.855s3.524-7.855,7.855-7.855    c4.332,0,7.855,3.524,7.855,7.855S176.335,259.44,172.003,259.44z M230.462,206.932l24.37-33.512l24.37,33.512    c-10.698,4.437-16.727,14.066-16.727,27.062c0,0.082,0.001,0.164,0.004,0.247l0.324,9.844H247.06l0.129-10.09    C247.189,220.998,241.159,211.368,230.462,206.932z M235.446,323.883v-64.798h41.107v64.798H235.446z M348.979,471.675    c0.097,0.074,0.13,0.12,0.132,0.12c0.03,0.108-0.061,0.37-0.146,0.429c0,0-0.053,0.021-0.192,0.021H163.227    c-0.132,0-0.187-0.019-0.188-0.019c-0.09-0.063-0.181-0.325-0.154-0.423c0,0,0.03-0.048,0.136-0.128    c24.625-18.688,35.789-44.56,40.851-63.937h104.257C313.226,427.267,324.419,453.037,348.979,471.675z"/>
		<path id="XMLID_275_" d="M209.865,88.964v1.681c0,4.142,3.358,7.5,7.5,7.5s7.5-3.358,7.5-7.5v-1.681c0-4.142-3.358-7.5-7.5-7.5    S209.865,84.822,209.865,88.964z"/>
		<path id="XMLID_795_" d="M248.5,88.964v1.681c0,4.142,3.358,7.5,7.5,7.5s7.5-3.358,7.5-7.5v-1.681c0-4.142-3.358-7.5-7.5-7.5    S248.5,84.822,248.5,88.964z"/>
		<path id="XMLID_274_" d="M287.135,88.964v1.681c0,4.142,3.358,7.5,7.5,7.5s7.5-3.358,7.5-7.5v-1.681c0-4.142-3.358-7.5-7.5-7.5    S287.135,84.822,287.135,88.964z"/>
		<path id="XMLID_273_" d="M274.673,365.811c0-10.296-8.377-18.673-18.673-18.673s-18.673,8.377-18.673,18.673    s8.377,18.673,18.673,18.673S274.673,376.107,274.673,365.811z M252.327,365.811c0-2.025,1.648-3.673,3.673-3.673    s3.673,1.648,3.673,3.673s-1.648,3.673-3.673,3.673S252.327,367.836,252.327,365.811z"/>
	</g>
</g>















</svg>
